<?xml version="1.0" encoding="utf-8"?>
<!-- Generator: Adobe Illustrator 26.3.1, SVG Export Plug-In . SVG Version: 6.00 Build 0)  -->
<svg version="1.1" id="레이어_1" xmlns="http://www.w3.org/2000/svg" xmlns:xlink="http://www.w3.org/1999/xlink" x="0px"
	 y="0px" viewBox="0 0 541.6 70.28" style="enable-background:new 0 0 541.6 70.28;" xml:space="preserve">
<style type="text/css">
	.st0{fill:#ffffff;}
</style>
<g>
	<g>
		<path class="st0" d="M31.11,17.12c-3.05-2.76-5.95-3.48-8.12-3.48c-1.38,0-3.34,0.22-4.57,1.23c-1.02,0.8-1.67,2.18-1.67,3.48
			c0,1.45,0.65,2.47,1.67,3.26c1.02,0.87,2.32,1.45,4.71,2.54l2.83,1.31c2.32,1.09,4.5,2.32,6.38,4.64
			c1.74,2.18,2.47,4.42,2.47,7.54c0,5.08-2.03,9.57-4.86,12.4c-3.92,3.84-8.92,4.71-13.85,4.71c-3.55,0-6.38-0.44-9.65-2.18
			C4.06,51.27,1.74,49.32,0,47.43l6.24-7.98c1.01,1.38,2.61,2.9,4.06,3.84c1.52,0.94,3.55,1.6,5.66,1.6c1.67,0,3.99-0.51,5.37-1.52
			c1.31-1.02,2.03-2.68,2.03-4.5c0-1.74-0.8-2.76-1.38-3.34c-0.36-0.36-1.31-1.16-3.84-2.18L15.3,32.2c-0.8-0.29-4.5-1.89-6.82-4.28
			c-2.32-2.39-3.19-5.15-3.19-8.2c0-5,2.03-8.63,4.35-10.95c3.92-3.84,8.92-4.57,13.05-4.57s8.92,0.8,14,4.79L31.11,17.12z"/>
		<path class="st0" d="M77.53,21.32L75.5,38.8c-0.43,3.84-1.09,8.34-4.71,11.82c-3.84,3.7-8.99,4.13-12.69,4.13
			c-3.26,0-8.99-0.22-12.62-3.7c-2.18-2.03-3.48-5.29-3.48-8.7c0-1.31,0.22-3.55,0.36-4.57l1.96-16.46h10.44l-1.89,16.1
			c-0.22,2.03-0.36,2.76-0.36,3.55c0,1.74,0.65,2.9,1.38,3.55c0.94,0.87,2.76,1.38,4.28,1.38c1.67,0,3.63-0.58,4.79-1.81
			c0.44-0.44,1.67-1.96,2.1-5.8l2.03-16.97H77.53z"/>
		<path class="st0" d="M85.79,21.32h10.44l-0.94,4.79c1.02-2.03,2.54-3.41,4.06-4.28c2.03-1.09,4.28-1.31,5.44-1.31
			c1.74,0,3.19,0.22,4.28,0.51l-2.03,9.72c-1.01-0.51-2.54-1.09-4.57-1.09c-2.61,0-4.35,1.02-5.37,1.96
			c-1.81,1.74-2.68,4.79-3.12,8.27l-1.74,13.78H81.81L85.79,21.32z"/>
		<path class="st0" d="M123.87,29.88l-2.9,23.79h-10.44l2.9-23.79h-3.77l1.09-8.56h3.77l0.65-5.08c0.58-4.28,1.31-8.63,4.64-12.04
			c3.63-3.7,8.49-4.21,12.04-4.21c4.79,0,9.65,1.23,12.47,3.77c2.68,2.32,3.41,5.22,3.41,8.34c0,1.23-0.14,2.47-0.29,4.71H137
			c0.15-0.73,0.15-1.38,0.15-2.03c0-1.81-0.44-3.26-1.31-4.21c-0.87-0.94-2.54-1.6-4.21-1.6c-2.1,0-3.41,0.8-4.13,1.67
			c-1.45,1.6-1.74,3.92-1.96,5.8l-0.58,4.86h6.96l-1.09,8.56H123.87z M146.86,21.32l-3.99,32.35h-10.44l3.99-32.35H146.86z"/>
		<path class="st0" d="M165.64,21.32l-0.51,3.55c1.23-1.31,2.61-2.32,3.99-3.05c2.32-1.23,4.13-1.38,6.38-1.38
			c2.68,0,5.95,0.36,8.41,2.76c2.54,2.47,2.76,5.73,2.76,7.69c0,1.09-0.07,2.68-0.51,6.16l-1.96,16.61h-10.44l1.74-14
			c0.43-3.34,0.43-4.71,0.43-5.22c0-1.23-0.22-2.76-1.3-3.92c-1.16-1.16-2.76-1.38-3.84-1.38c-1.81,0-3.41,0.44-4.71,1.74
			c-1.89,1.96-2.32,5.08-2.54,6.82l-1.89,15.96h-10.44l3.99-32.35H165.64z"/>
		<path class="st0" d="M220.54,21.32h10.44l-4.06,32.49c-0.51,3.77-1.45,8.34-4.86,11.75c-4.28,4.28-10.37,4.71-14.14,4.71
			c-4.35,0-8.99-0.72-12.55-4.06c-2.25-2.18-3.99-5.37-4.5-8.85h11.17c0.29,1.16,1.02,2.39,1.96,3.19c1.16,0.94,2.83,1.31,4.57,1.31
			c3.19,0,4.93-1.45,5.73-2.39c1.31-1.52,1.96-4.06,2.18-6.02l0.44-3.48c-2.9,4.13-7.04,4.57-9.94,4.57
			c-3.26,0-6.67-0.36-10.01-3.84c-2.25-2.32-4.35-6.02-4.35-11.75c0-5.66,1.96-10.59,5.29-14c3.12-3.19,6.89-4.71,11.6-4.71
			c2.25,0,6.82,0.29,10.66,5L220.54,21.32z M205.75,31.4c-1.45,1.45-2.39,4.13-2.39,6.53c0,2.03,0.73,4.28,2.18,5.66
			c1.31,1.23,3.41,1.96,5.22,1.96c1.96,0,4.28-0.65,5.73-2.1c1.6-1.52,2.68-4.5,2.68-6.89c0-2.03-0.87-4.13-2.1-5.29
			c-1.01-1.02-2.68-1.96-5.58-1.96S206.76,30.39,205.75,31.4z"/>
		<path class="st0" d="M251.36,53.67l13.78-48.37h9.21l8.27,28.94l15.67-28.94h9.5l1.74,48.37h-11.17l-0.29-28.86l-15.45,28.86
			h-4.21l-8.49-28.86l-7.4,28.86H251.36z"/>
		<path class="st0" d="M328.82,49.53l-12.55-28.21h11.89l7.18,17.7l10.88-17.7h12.26l-31.26,48.95h-11.75L328.82,49.53z"/>
		<path class="st0" d="M389.09,5.29l6.38,32.06l14.29-32.06h7.69l6.31,32.06l14.22-32.06h11.89l-22.34,48.37h-9.57L411.5,24.3
			l-13.71,29.37h-9.57L377.77,5.29H389.09z"/>
		<path class="st0" d="M474.01,21.32h10.44l-3.99,32.35h-10.44l0.8-3.7c-1.16,1.38-2.83,2.83-4.57,3.63
			c-2.25,1.02-4.79,1.16-6.02,1.16c-3.99,0-7.18-1.02-10.01-3.99c-2.39-2.54-4.35-6.31-4.35-11.89c0-5.95,2.1-10.73,5.22-13.92
			c3.34-3.41,7.4-4.71,11.89-4.71c1.89,0,4.21,0.22,6.31,1.23c1.23,0.58,2.97,1.74,4.42,3.77L474.01,21.32z M459.07,31.62
			c-1.45,1.45-2.47,3.77-2.47,6.45c0,2.68,1.09,4.42,2.1,5.51c1.52,1.6,3.41,2.18,5.51,2.18c2.97,0,4.86-1.16,5.95-2.18
			c1.89-1.81,2.76-4.57,2.76-6.96c0-2.32-0.87-4.35-2.25-5.58c-0.94-0.87-2.61-1.81-5.44-1.81
			C462.63,29.23,460.67,30.03,459.07,31.62z"/>
		<path class="st0" d="M501.14,49.53l-12.55-28.21h11.89l7.18,17.7l10.88-17.7h12.26l-31.26,48.95h-11.75L501.14,49.53z"/>
		<path class="st0" d="M535,41.63c3.7,0,6.6,2.9,6.6,6.6s-2.9,6.6-6.6,6.6c-3.7,0-6.6-2.9-6.6-6.6S531.31,41.63,535,41.63z"/>
	</g>
</g>
</svg>
